<svg width="97" height="85" viewBox="0 0 97 85" fill="none" xmlns="http://www.w3.org/2000/svg">
<path d="M0 0H97V60C97 73.8071 85.8071 85 72 85H25C11.1929 85 0 73.8071 0 60V0Z" fill="white"/>
<path d="M3.5 -0.5H95.5V58C95.5 71.531 84.531 82.5 71 82.5H28C14.469 82.5 3.5 71.531 3.5 58V-0.5Z" fill="white" stroke="#E5E5E6"/>
<path d="M31.532 69.878C31.6533 69.878 31.7467 69.934 31.812 70.046C31.8867 70.158 31.924 70.312 31.924 70.508C31.924 70.872 31.8353 71.1613 31.658 71.376C31.21 71.9173 30.7573 72.3373 30.3 72.636C29.8427 72.9253 29.3013 73.07 28.676 73.07C27.9853 73.07 27.4207 72.8693 26.982 72.468C26.5433 72.0573 26.1327 71.4227 25.75 70.564C25.47 69.948 25.2367 69.4907 25.05 69.192C24.8727 68.884 24.6953 68.6693 24.518 68.548C24.3407 68.4173 24.1167 68.338 23.846 68.31L23.692 69.346C23.496 70.6807 23.1133 71.642 22.544 72.23C21.984 72.818 21.2093 73.112 20.22 73.112C19.576 73.112 19.002 72.958 18.498 72.65C18.0033 72.3327 17.658 71.9313 17.462 71.446C17.3967 71.278 17.364 71.096 17.364 70.9C17.364 70.62 17.4293 70.3773 17.56 70.172C17.6907 69.9667 17.8587 69.864 18.064 69.864C18.1853 69.864 18.288 69.8967 18.372 69.962C18.456 70.018 18.5353 70.1207 18.61 70.27C18.8993 70.8113 19.1513 71.1893 19.366 71.404C19.59 71.6187 19.8653 71.726 20.192 71.726C20.5653 71.726 20.8827 71.558 21.144 71.222C21.4147 70.8767 21.606 70.3493 21.718 69.64L21.914 68.31H21.69C21.4753 68.31 21.3073 68.2493 21.186 68.128C21.0647 68.0067 21.004 67.8387 21.004 67.624C21.004 67.3813 21.0647 67.19 21.186 67.05C21.3167 66.9007 21.4753 66.826 21.662 66.826H22.124C22.1893 66.3687 22.236 66.0513 22.264 65.874L22.698 62.724C22.4553 62.696 22.2267 62.682 22.012 62.682C21.2187 62.682 20.6167 62.822 20.206 63.102C19.7953 63.3727 19.59 63.7647 19.59 64.278C19.59 64.5113 19.6133 64.7027 19.66 64.852C19.716 64.992 19.786 65.1507 19.87 65.328C19.9073 65.4027 19.926 65.4867 19.926 65.58C19.926 65.7853 19.828 65.9673 19.632 66.126C19.4453 66.2753 19.2353 66.35 19.002 66.35C18.7033 66.35 18.484 66.2193 18.344 65.958C18.064 65.4633 17.924 64.9313 17.924 64.362C17.924 63.774 18.0827 63.2373 18.4 62.752C18.7267 62.2667 19.2167 61.8793 19.87 61.59C20.5233 61.2913 21.3307 61.142 22.292 61.142C22.712 61.142 23.0947 61.1653 23.44 61.212C23.7947 61.2587 24.182 61.3473 24.602 61.478C25.0593 61.618 25.288 61.8793 25.288 62.262C25.288 62.7753 25.0687 63.032 24.63 63.032L24.084 66.798C25.176 66.686 26.0627 66.2193 26.744 65.398C27.4347 64.5673 28.0087 63.4427 28.466 62.024C28.55 61.7627 28.69 61.562 28.886 61.422C29.0913 61.282 29.348 61.212 29.656 61.212C29.9173 61.212 30.118 61.2727 30.258 61.394C30.4073 61.506 30.482 61.6693 30.482 61.884C30.482 61.9493 30.4633 62.0567 30.426 62.206C29.9593 63.746 29.292 64.9687 28.424 65.874C27.556 66.7793 26.6087 67.3813 25.582 67.68C25.9367 67.764 26.226 67.89 26.45 68.058C26.6833 68.226 26.8793 68.436 27.038 68.688C27.1967 68.9307 27.3787 69.2713 27.584 69.71C27.8733 70.326 28.144 70.7647 28.396 71.026C28.648 71.278 28.942 71.404 29.278 71.404C29.5767 71.404 29.8613 71.306 30.132 71.11C30.4027 70.9047 30.7433 70.5593 31.154 70.074C31.266 69.9433 31.392 69.878 31.532 69.878ZM38.2593 69.878C38.3807 69.878 38.474 69.934 38.5393 70.046C38.614 70.158 38.6513 70.312 38.6513 70.508C38.6513 70.8813 38.5627 71.1707 38.3853 71.376C37.984 71.8707 37.55 72.2767 37.0833 72.594C36.626 72.9113 36.1033 73.07 35.5153 73.07C35.0207 73.07 34.6193 72.8927 34.3113 72.538C33.7793 72.8833 33.224 73.0607 32.6453 73.07C32.524 74.8713 32.2487 76.374 31.8193 77.578C31.39 78.7913 30.76 79.398 29.9293 79.398C29.4253 79.398 29.052 79.216 28.8093 78.852C28.5667 78.488 28.4453 77.984 28.4453 77.34C28.4453 76.4253 28.6553 75.3567 29.0753 74.134C29.4953 72.9207 30.144 71.5813 31.0213 70.116C31.0213 68.7533 31.012 67.806 30.9933 67.274C30.984 67.0033 31.0913 66.7887 31.3153 66.63C31.5393 66.4713 31.8193 66.392 32.1553 66.392C32.3513 66.392 32.4913 66.434 32.5753 66.518C32.6687 66.5927 32.72 66.7467 32.7293 66.98C32.7293 67.2133 32.734 67.386 32.7433 67.498C33.042 67.1247 33.336 66.8587 33.6253 66.7C33.9147 66.532 34.2227 66.448 34.5493 66.448C35.072 66.448 35.4967 66.658 35.8233 67.078C36.1593 67.498 36.3273 68.0487 36.3273 68.73C36.3273 69.2247 36.248 69.7053 36.0893 70.172C35.9307 70.6387 35.7113 71.0633 35.4313 71.446C35.6273 71.502 35.7907 71.53 35.9213 71.53C36.2293 71.53 36.5233 71.418 36.8033 71.194C37.0833 70.97 37.4427 70.5967 37.8813 70.074C37.9933 69.9433 38.1193 69.878 38.2593 69.878ZM32.7153 71.726C33.0513 71.6513 33.3593 71.4693 33.6393 71.18C33.9287 70.8813 34.1573 70.5173 34.3253 70.088C34.4933 69.6493 34.5773 69.192 34.5773 68.716C34.5773 68.436 34.5213 68.226 34.4093 68.086C34.2973 67.9367 34.148 67.862 33.9613 67.862C33.6253 67.862 33.2193 68.2167 32.7433 68.926C32.734 69.3367 32.7293 69.9387 32.7293 70.732C32.7293 71.1613 32.7247 71.4927 32.7153 71.726ZM30.0413 78.026C30.2933 78.026 30.5033 77.4753 30.6713 76.374C30.8393 75.282 30.9467 73.9193 30.9933 72.286C30.592 73.2193 30.2747 74.1107 30.0413 74.96C29.808 75.8093 29.6913 76.5233 29.6913 77.102C29.6913 77.4007 29.7287 77.6293 29.8033 77.788C29.8687 77.9467 29.948 78.026 30.0413 78.026ZM44.6636 68.702C44.7849 68.702 44.8782 68.7627 44.9436 68.884C45.0089 69.0053 45.0416 69.1593 45.0416 69.346C45.0416 69.794 44.9062 70.06 44.6356 70.144C44.0756 70.34 43.4596 70.452 42.7876 70.48C42.6102 71.264 42.2602 71.894 41.7376 72.37C41.2149 72.8367 40.6222 73.07 39.9596 73.07C39.3996 73.07 38.9189 72.9347 38.5176 72.664C38.1256 72.3933 37.8269 72.034 37.6216 71.586C37.4162 71.138 37.3136 70.6527 37.3136 70.13C37.3136 69.4207 37.4489 68.7907 37.7196 68.24C37.9902 67.68 38.3636 67.246 38.8396 66.938C39.3156 66.6207 39.8429 66.462 40.4216 66.462C41.1309 66.462 41.7002 66.7093 42.1296 67.204C42.5682 67.6893 42.8249 68.2913 42.8996 69.01C43.3382 68.982 43.8609 68.8887 44.4676 68.73C44.5422 68.7113 44.6076 68.702 44.6636 68.702ZM40.0716 71.586C40.3702 71.586 40.6269 71.4647 40.8416 71.222C41.0656 70.9793 41.2149 70.6293 41.2896 70.172C41.0002 69.976 40.7762 69.7193 40.6176 69.402C40.4682 69.0847 40.3936 68.7487 40.3936 68.394C40.3936 68.2447 40.4076 68.0953 40.4356 67.946H40.3656C39.9922 67.946 39.6796 68.128 39.4276 68.492C39.1849 68.8467 39.0636 69.3507 39.0636 70.004C39.0636 70.5173 39.1616 70.9093 39.3576 71.18C39.5629 71.4507 39.8009 71.586 40.0716 71.586ZM51.288 68.702C51.4093 68.702 51.5026 68.7627 51.568 68.884C51.6333 69.0053 51.666 69.1593 51.666 69.346C51.666 69.5793 51.6333 69.7613 51.568 69.892C51.5026 70.0133 51.4 70.0973 51.26 70.144C50.7 70.34 50.084 70.452 49.412 70.48C49.2253 71.2547 48.8706 71.88 48.348 72.356C47.8346 72.832 47.2653 73.07 46.64 73.07C45.6973 73.07 45.0113 72.7107 44.582 71.992C44.1526 71.2733 43.938 70.2327 43.938 68.87C43.938 67.666 44.0873 66.3593 44.386 64.95C44.6846 63.5313 45.1186 62.3273 45.688 61.338C46.2666 60.3393 46.9526 59.84 47.746 59.84C48.1753 59.84 48.5206 60.0267 48.782 60.4C49.0433 60.764 49.174 61.24 49.174 61.828C49.174 62.5933 49.0293 63.354 48.74 64.11C48.4506 64.866 47.97 65.6593 47.298 66.49C47.9233 66.5367 48.432 66.798 48.824 67.274C49.216 67.7407 49.4493 68.3193 49.524 69.01C49.9626 68.982 50.4853 68.8887 51.092 68.73C51.148 68.7113 51.2133 68.702 51.288 68.702ZM47.424 61.226C47.2373 61.226 47.032 61.506 46.808 62.066C46.5933 62.6167 46.3926 63.368 46.206 64.32C46.0193 65.272 45.8793 66.3127 45.786 67.442C46.402 66.3127 46.892 65.3187 47.256 64.46C47.6293 63.592 47.816 62.822 47.816 62.15C47.816 61.8513 47.7786 61.6227 47.704 61.464C47.6386 61.3053 47.5453 61.226 47.424 61.226ZM46.696 71.586C46.9853 71.586 47.242 71.4647 47.466 71.222C47.69 70.9793 47.8393 70.6293 47.914 70.172C47.6246 69.976 47.4006 69.7193 47.242 69.402C47.0926 69.0847 47.018 68.7487 47.018 68.394C47.018 68.2633 47.0366 68.086 47.074 67.862H47.032C46.6493 67.862 46.3273 68.0533 46.066 68.436C45.814 68.8093 45.688 69.3133 45.688 69.948C45.688 70.48 45.786 70.886 45.982 71.166C46.1873 71.446 46.4253 71.586 46.696 71.586ZM52.1792 73.07C51.6005 73.07 51.1385 72.86 50.7932 72.44C50.4478 72.02 50.2752 71.4693 50.2752 70.788C50.2752 70.0413 50.4478 69.3367 50.7932 68.674C51.1385 68.002 51.5958 67.4653 52.1652 67.064C52.7438 66.6533 53.3552 66.448 53.9992 66.448C54.2045 66.448 54.3398 66.49 54.4052 66.574C54.4798 66.6487 54.5405 66.7887 54.5872 66.994C54.7832 66.9567 54.9885 66.938 55.2032 66.938C55.6605 66.938 55.8892 67.1013 55.8892 67.428C55.8892 67.624 55.8192 68.0907 55.6792 68.828C55.4645 69.9013 55.3572 70.648 55.3572 71.068C55.3572 71.208 55.3898 71.32 55.4552 71.404C55.5298 71.488 55.6232 71.53 55.7352 71.53C55.9125 71.53 56.1272 71.418 56.3792 71.194C56.6312 70.9607 56.9718 70.5873 57.4012 70.074C57.5132 69.9433 57.6392 69.878 57.7792 69.878C57.9005 69.878 57.9938 69.934 58.0592 70.046C58.1338 70.158 58.1712 70.312 58.1712 70.508C58.1712 70.8813 58.0825 71.1707 57.9052 71.376C57.5225 71.852 57.1165 72.2533 56.6872 72.58C56.2578 72.9067 55.8425 73.07 55.4412 73.07C55.1332 73.07 54.8485 72.9673 54.5872 72.762C54.3352 72.5473 54.1438 72.258 54.0132 71.894C53.5278 72.678 52.9165 73.07 52.1792 73.07ZM52.6832 71.656C52.8885 71.656 53.0845 71.5347 53.2712 71.292C53.4578 71.0493 53.5932 70.7273 53.6772 70.326L54.1952 67.75C53.8032 67.7593 53.4392 67.9087 53.1032 68.198C52.7765 68.478 52.5152 68.8513 52.3192 69.318C52.1232 69.7847 52.0252 70.2793 52.0252 70.802C52.0252 71.0913 52.0812 71.306 52.1932 71.446C52.3145 71.586 52.4778 71.656 52.6832 71.656ZM58.0273 73.07C57.6727 73.07 57.4207 72.8833 57.2713 72.51C57.1313 72.1367 57.0613 71.5393 57.0613 70.718C57.0613 69.5047 57.234 68.352 57.5793 67.26C57.6633 66.9893 57.7987 66.7933 57.9853 66.672C58.1813 66.5413 58.452 66.476 58.7973 66.476C58.984 66.476 59.1147 66.4993 59.1893 66.546C59.264 66.5927 59.3013 66.6813 59.3013 66.812C59.3013 66.9613 59.2313 67.2973 59.0913 67.82C58.998 68.1933 58.9233 68.52 58.8673 68.8C58.8113 69.0707 58.7647 69.4113 58.7273 69.822C58.9793 69.094 59.278 68.478 59.6233 67.974C59.978 67.47 60.3373 67.0967 60.7013 66.854C61.0747 66.602 61.4247 66.476 61.7513 66.476C62.078 66.476 62.3067 66.5507 62.4373 66.7C62.5773 66.8493 62.6473 67.078 62.6473 67.386C62.6473 67.6847 62.5587 68.226 62.3813 69.01C62.3067 69.346 62.2553 69.598 62.2273 69.766C62.694 68.618 63.212 67.7827 63.7813 67.26C64.3507 66.7373 64.8827 66.476 65.3773 66.476C65.984 66.476 66.2873 66.7793 66.2873 67.386C66.2873 67.75 66.1847 68.408 65.9793 69.36C65.802 70.172 65.7133 70.7087 65.7133 70.97C65.7133 71.3433 65.8487 71.53 66.1193 71.53C66.306 71.53 66.5253 71.418 66.7773 71.194C67.0387 70.9607 67.384 70.5873 67.8133 70.074C67.9253 69.9433 68.0513 69.878 68.1913 69.878C68.3127 69.878 68.406 69.934 68.4713 70.046C68.546 70.158 68.5833 70.312 68.5833 70.508C68.5833 70.8813 68.4947 71.1707 68.3173 71.376C67.916 71.8707 67.482 72.2767 67.0153 72.594C66.558 72.9113 66.0353 73.07 65.4473 73.07C64.9713 73.07 64.612 72.9347 64.3693 72.664C64.1267 72.384 64.0053 71.9827 64.0053 71.46C64.0053 71.1987 64.0707 70.732 64.2013 70.06C64.3227 69.472 64.3833 69.066 64.3833 68.842C64.3833 68.6927 64.332 68.618 64.2293 68.618C64.108 68.618 63.9353 68.7767 63.7113 69.094C63.4873 69.402 63.2633 69.8127 63.0393 70.326C62.8153 70.8393 62.6333 71.3807 62.4933 71.95C62.3907 72.398 62.2693 72.6967 62.1293 72.846C61.9987 72.9953 61.784 73.07 61.4853 73.07C61.1773 73.07 60.944 72.9253 60.7853 72.636C60.636 72.3373 60.5613 71.978 60.5613 71.558C60.5613 71.2033 60.608 70.69 60.7013 70.018C60.776 69.4207 60.8133 69.0287 60.8133 68.842C60.8133 68.6927 60.762 68.618 60.6593 68.618C60.5193 68.618 60.342 68.786 60.1273 69.122C59.9127 69.458 59.7027 69.8873 59.4973 70.41C59.3013 70.9327 59.1427 71.446 59.0213 71.95C58.9187 72.3887 58.7973 72.6873 58.6573 72.846C58.5267 72.9953 58.3167 73.07 58.0273 73.07ZM68.4453 73.07C68.0906 73.07 67.8386 72.8833 67.6893 72.51C67.5493 72.1367 67.4793 71.5393 67.4793 70.718C67.4793 69.5047 67.652 68.352 67.9973 67.26C68.0813 66.9893 68.2166 66.7933 68.4033 66.672C68.5993 66.5413 68.87 66.476 69.2153 66.476C69.402 66.476 69.5326 66.4993 69.6073 66.546C69.682 66.5927 69.7193 66.6813 69.7193 66.812C69.7193 66.9613 69.6493 67.2973 69.5093 67.82C69.4906 67.8853 69.4486 68.0347 69.3833 68.268C69.3273 68.5013 69.2713 68.7767 69.2153 69.094C69.1686 69.402 69.136 69.7427 69.1173 70.116C69.4533 68.8093 69.878 67.876 70.3913 67.316C70.9046 66.756 71.5253 66.476 72.2533 66.476C72.7386 66.476 73.1166 66.63 73.3873 66.938C73.6673 67.2367 73.8073 67.624 73.8073 68.1C73.8073 68.492 73.7186 68.8233 73.5413 69.094C73.3733 69.3647 73.1493 69.5 72.8693 69.5C72.692 69.5 72.5473 69.458 72.4353 69.374C72.3326 69.29 72.2813 69.1733 72.2813 69.024C72.2813 68.9587 72.2906 68.884 72.3093 68.8C72.328 68.716 72.342 68.6553 72.3513 68.618C72.398 68.478 72.4213 68.3473 72.4213 68.226C72.4213 67.974 72.3 67.848 72.0573 67.848C71.8706 67.848 71.6886 67.946 71.5113 68.142C71.334 68.3287 71.1893 68.5853 71.0773 68.912C70.9746 69.2293 70.9233 69.5747 70.9233 69.948C70.9233 70.452 71.04 70.858 71.2733 71.166C71.5066 71.4647 71.8426 71.614 72.2813 71.614C72.6266 71.614 72.9346 71.502 73.2053 71.278C73.476 71.0447 73.8493 70.6433 74.3253 70.074C74.4373 69.9433 74.5633 69.878 74.7033 69.878C74.8246 69.878 74.918 69.934 74.9833 70.046C75.058 70.158 75.0953 70.312 75.0953 70.508C75.0953 70.8813 75.0066 71.1707 74.8293 71.376C74.4093 71.88 73.9893 72.2907 73.5693 72.608C73.1493 72.916 72.6733 73.07 72.1413 73.07C71.7026 73.07 71.3013 72.9767 70.9373 72.79C70.5826 72.594 70.2933 72.3607 70.0693 72.09C69.8453 71.8193 69.7006 71.558 69.6353 71.306C69.6166 71.3807 69.5466 71.642 69.4253 72.09C69.3226 72.4633 69.2013 72.72 69.0613 72.86C68.9306 73 68.7253 73.07 68.4453 73.07ZM75.3871 73.07C74.9671 73.07 74.6218 72.8787 74.3511 72.496C74.0898 72.104 73.9591 71.6187 73.9591 71.04C73.9591 70.34 74.0058 69.7007 74.0991 69.122C74.1924 68.534 74.3464 67.9133 74.5611 67.26C74.6544 66.98 74.7851 66.7793 74.9531 66.658C75.1211 66.5367 75.3871 66.476 75.7511 66.476C75.9564 66.476 76.0964 66.5087 76.1711 66.574C76.2551 66.6393 76.2971 66.7373 76.2971 66.868C76.2971 66.9427 76.2458 67.1947 76.1431 67.624C76.0498 67.9693 75.9751 68.282 75.9191 68.562C75.7324 69.542 75.6391 70.1953 75.6391 70.522C75.6391 70.718 75.6624 70.858 75.7091 70.942C75.7558 71.0167 75.8304 71.054 75.9331 71.054C76.0731 71.054 76.2458 70.914 76.4511 70.634C76.6658 70.354 76.8898 69.9293 77.1231 69.36C77.3658 68.7907 77.5991 68.0907 77.8231 67.26C77.8978 66.98 78.0098 66.7793 78.1591 66.658C78.3178 66.5367 78.5511 66.476 78.8591 66.476C79.0738 66.476 79.2231 66.504 79.3071 66.56C79.3911 66.6067 79.4331 66.7 79.4331 66.84C79.4331 67.0733 79.3164 67.7127 79.0831 68.758C78.8218 69.9527 78.6911 70.69 78.6911 70.97C78.6911 71.1473 78.7284 71.2873 78.8031 71.39C78.8778 71.4833 78.9758 71.53 79.0971 71.53C79.2838 71.53 79.5031 71.418 79.7551 71.194C80.0164 70.9607 80.3618 70.5873 80.7911 70.074C80.9031 69.9433 81.0291 69.878 81.1691 69.878C81.2904 69.878 81.3838 69.934 81.4491 70.046C81.5238 70.158 81.5611 70.312 81.5611 70.508C81.5611 70.8813 81.4724 71.1707 81.2951 71.376C80.8938 71.8707 80.4598 72.2767 79.9931 72.594C79.5358 72.9113 79.0131 73.07 78.4251 73.07C77.9771 73.07 77.6458 72.8973 77.4311 72.552C77.2258 72.2067 77.1231 71.7213 77.1231 71.096C76.9644 71.7307 76.7264 72.2207 76.4091 72.566C76.0918 72.902 75.7511 73.07 75.3871 73.07Z" fill="#039BE5"/>
<path d="M70.6 21.1472V18.4864C71.9768 18.1289 73 16.8864 73 15.4C73 13.6351 71.5648 12.2 69.8 12.2C68.0353 12.2 66.6001 13.6352 66.6001 15.4C66.6001 16.8864 67.6233 18.1288 69.0001 18.4864V21.1472C68.0713 21.4784 67.4 22.3584 67.4 23.4V24.2H30.6V23.4C30.6 22.3585 29.9288 21.4784 28.9999 21.1472V18.4864C30.3767 18.1289 31.3999 16.8864 31.3999 15.4C31.3999 13.6351 29.9647 12.2 28.2 12.2C26.4352 12.2 25 13.6352 25 15.4C25 16.8864 26.0232 18.1288 27.4 18.4864V21.1472C26.4712 21.4784 25.8 22.3584 25.8 23.4V52.2C25.8 52.6416 26.1575 53 26.5999 53H29.8H68.2H71.4C71.8424 53 72.1999 52.6416 72.1999 52.2V23.4C72.2 22.3584 71.5288 21.4784 70.6 21.1472ZM56.2 25.8H61V41.4041C59.552 40.9897 57.9152 40.6784 56.2 40.4769V25.8ZM49.8 25.8H54.6V40.3232C53.5399 40.2424 52.4656 40.2 51.4 40.2C50.86 40.2 50.3312 40.2232 49.8 40.2424V25.8ZM43.4 25.8H48.2V40.3329C46.5008 40.4601 44.8864 40.6889 43.4 41.0129V25.8ZM37 25.8H41.8V39.6112C40.892 38.976 39.7896 38.6 38.6 38.6C38.044 38.6 37.5073 38.684 37 38.836V25.8ZM30.6 25.8H35.4V39.6112C33.9512 40.624 33 42.3024 33 44.2C33 45.7664 33.648 47.1824 34.6888 48.2H30.6V25.8ZM67.4 51.4H30.6V49.7999H40.7112H62.112H67.3999V51.4H67.4ZM67.4 48.2H65.2728C66.3177 47.3352 66.6001 46.4752 66.6001 45.8C66.6001 44.164 65.0136 42.868 62.6 41.936V25.8H67.4V48.2Z" fill="#039BE5"/>
<path d="M37.8 21.8C38.4984 21.8 39.1728 21.6144 39.8024 21.248C40.0488 21.104 40.2 20.8408 40.2 20.556C40.2 20.2712 40.0488 20.0081 39.8024 19.8648C39.0496 19.4264 38.6 18.6544 38.6 17.8C38.6 16.9455 39.0496 16.1736 39.8024 15.7351C40.0488 15.592 40.2 15.3287 40.2 15.0439C40.2 14.7671 40.0551 14.5127 39.8208 14.3663L48.2 9.57828V14.7575C47.9464 14.8607 47.708 15.0143 47.5024 15.2199L45.6392 17.0831C44.8144 17.9095 44.8144 19.2519 45.6392 20.0783L47.5024 21.9415C47.9151 22.3542 48.4576 22.5607 48.9999 22.5607C49.5423 22.5607 50.0847 22.3542 50.4975 21.9415L52.3607 20.0783C53.1855 19.2519 53.1855 17.9095 52.3607 17.0831L50.4975 15.2199C50.2919 15.0143 50.0535 14.8607 49.7999 14.7575V9.53281L59.9407 14.9384L59.4784 15.876L57.6792 16.1376C57.3776 16.1816 57.1272 16.3928 57.0328 16.6824C56.9392 16.972 57.0168 17.2896 57.2352 17.5024L58.5376 18.7712L58.2304 20.5632C58.1792 20.8632 58.3024 21.1664 58.5487 21.3457C58.796 21.5241 59.1223 21.5481 59.3903 21.4065L60.9999 20.5609L62.6095 21.4065C62.7255 21.4673 62.8535 21.4985 62.9815 21.4985C63.1471 21.4985 63.3119 21.4465 63.4511 21.3457C63.6975 21.1665 63.8207 20.8632 63.7695 20.5632L63.4623 18.7712L64.7646 17.5024C64.9831 17.2896 65.0606 16.972 64.967 16.6824C64.8726 16.3928 64.6222 16.1816 64.3206 16.1376L62.5215 15.876L61.7166 14.2465C61.7071 14.2265 61.691 14.2121 61.6798 14.1937C61.6078 14.0737 61.515 13.9648 61.383 13.8945L49.7998 7.72016V5.79997C49.8 5.35841 49.4424 5 49 5C48.5576 5 48.2 5.35841 48.2 5.79997V7.736L37.5425 13.8264C35.4585 13.9616 33.8 15.6832 33.8 17.8C33.8 20.0056 35.5944 21.8 37.8 21.8ZM37.8 15.4H37.8144C37.2952 16.0831 37 16.9248 37 17.8C37 18.6752 37.2952 19.5168 37.8144 20.2H37.8C36.4768 20.2 35.4 19.1232 35.4 17.8C35.4 16.4768 36.4768 15.4 37.8 15.4Z" fill="#039BE5"/>
</svg>
