<svg width="32" height="32" viewBox="0 0 32 32" fill="none" xmlns="http://www.w3.org/2000/svg">
<circle cx="16" cy="16" r="16" fill="#B7410E"/>
<path d="M16.505 8.57446C18.7774 8.57446 19.0465 8.58444 19.9402 8.62435C20.7708 8.66094 21.2193 8.80064 21.5183 8.91706C21.9136 9.07006 22.1993 9.25633 22.495 9.55236C22.794 9.85172 22.9767 10.1344 23.1296 10.5303C23.2458 10.8296 23.3854 11.282 23.4219 12.1102C23.4618 13.0083 23.4718 13.2777 23.4718 15.5495C23.4718 17.8246 23.4618 18.0941 23.4219 18.9888C23.3854 19.8204 23.2458 20.2694 23.1296 20.5688C22.9767 20.9646 22.7907 21.2506 22.495 21.5467C22.196 21.846 21.9136 22.029 21.5183 22.182C21.2193 22.2984 20.7674 22.4381 19.9402 22.4747C19.0432 22.5146 18.7741 22.5246 16.505 22.5246C14.2326 22.5246 13.9635 22.5146 13.0698 22.4747C12.2392 22.4381 11.7907 22.2984 11.4917 22.182C11.0963 22.029 10.8106 21.8427 10.515 21.5467C10.2159 21.2473 10.0332 20.9646 9.8804 20.5688C9.76412 20.2694 9.62458 19.817 9.58804 18.9888C9.54817 18.0907 9.53821 17.8213 9.53821 15.5495C9.53821 13.2744 9.54817 13.005 9.58804 12.1102C9.62458 11.2787 9.76412 10.8296 9.8804 10.5303C10.0332 10.1344 10.2193 9.8484 10.515 9.55236C10.814 9.253 11.0963 9.07006 11.4917 8.91706C11.7907 8.80064 12.2425 8.66094 13.0698 8.62435C13.9635 8.58444 14.2326 8.57446 16.505 8.57446ZM16.505 7.04108C14.196 7.04108 13.907 7.05106 13 7.09097C12.0963 7.13088 11.4751 7.27724 10.9369 7.48679C10.3754 7.70632 9.90033 7.9957 9.42857 8.47135C8.95349 8.94367 8.66445 9.41931 8.44518 9.97812C8.23588 10.5203 8.0897 11.139 8.04983 12.0437C8.00997 12.9551 8 13.2445 8 15.5562C8 17.8679 8.00997 18.1573 8.04983 19.0653C8.0897 19.97 8.23588 20.592 8.44518 21.1309C8.66445 21.693 8.95349 22.1687 9.42857 22.641C9.90033 23.1133 10.3754 23.406 10.9336 23.6222C11.4751 23.8318 12.093 23.9781 12.9967 24.018C13.9037 24.058 14.1927 24.0679 16.5017 24.0679C18.8106 24.0679 19.0997 24.058 20.0066 24.018C20.9103 23.9781 21.5316 23.8318 22.0698 23.6222C22.6279 23.406 23.103 23.1133 23.5747 22.641C24.0465 22.1687 24.3389 21.693 24.5548 21.1342C24.7641 20.592 24.9103 19.9734 24.9502 19.0686C24.99 18.1606 25 17.8712 25 15.5595C25 13.2478 24.99 12.9584 24.9502 12.0503C24.9103 11.1456 24.7641 10.5236 24.5548 9.98477C24.3455 9.41931 24.0565 8.94367 23.5814 8.47135C23.1096 7.99902 22.6346 7.70632 22.0764 7.49011C21.5349 7.28056 20.9169 7.13421 20.0133 7.0943C19.103 7.05106 18.814 7.04108 16.505 7.04108Z" fill="white"/>
<path d="M16.505 11.1822C14.093 11.1822 12.1362 13.1414 12.1362 15.5562C12.1362 17.971 14.093 19.9301 16.505 19.9301C18.9169 19.9301 20.8737 17.971 20.8737 15.5562C20.8737 13.1414 18.9169 11.1822 16.505 11.1822ZM16.505 18.3934C14.9402 18.3934 13.6711 17.1228 13.6711 15.5562C13.6711 13.9895 14.9402 12.7189 16.505 12.7189C18.0698 12.7189 19.3389 13.9895 19.3389 15.5562C19.3389 17.1228 18.0698 18.3934 16.505 18.3934Z" fill="white"/>
<path d="M22.0664 11.0092C22.0664 11.5747 21.608 12.0304 21.0465 12.0304C20.4817 12.0304 20.0266 11.5713 20.0266 11.0092C20.0266 10.4438 20.4851 9.98807 21.0465 9.98807C21.608 9.98807 22.0664 10.4471 22.0664 11.0092Z" fill="white"/>
</svg>
