<svg width="97" height="85" viewBox="0 0 97 85" fill="none" xmlns="http://www.w3.org/2000/svg">
<path d="M0 0H97V60C97 73.8071 85.8071 85 72 85H25C11.1929 85 0 73.8071 0 60V0Z" fill="white"/>
<path d="M3.5 -0.5H95.5V58C95.5 71.531 84.531 82.5 71 82.5H28C14.469 82.5 3.5 71.531 3.5 58V-0.5Z" fill="white" stroke="#E5E5E6"/>
<path d="M27.5568 67.77C27.6434 67.77 27.7101 67.81 27.7568 67.89C27.8101 67.97 27.8368 68.08 27.8368 68.22C27.8368 68.48 27.7734 68.6867 27.6468 68.84C27.3268 69.2267 27.0034 69.5267 26.6768 69.74C26.3501 69.9467 25.9634 70.05 25.5168 70.05C25.0234 70.05 24.6201 69.9067 24.3068 69.62C23.9934 69.3267 23.7001 68.8733 23.4268 68.26C23.2268 67.82 23.0601 67.4933 22.9268 67.28C22.8001 67.06 22.6734 66.9067 22.5468 66.82C22.4201 66.7267 22.2601 66.67 22.0668 66.65L21.9568 67.39C21.8168 68.3433 21.5434 69.03 21.1368 69.45C20.7368 69.87 20.1834 70.08 19.4768 70.08C19.0168 70.08 18.6068 69.97 18.2468 69.75C17.8934 69.5233 17.6468 69.2367 17.5068 68.89C17.4601 68.77 17.4368 68.64 17.4368 68.5C17.4368 68.3 17.4834 68.1267 17.5768 67.98C17.6701 67.8333 17.7901 67.76 17.9368 67.76C18.0234 67.76 18.0968 67.7833 18.1568 67.83C18.2168 67.87 18.2734 67.9433 18.3268 68.05C18.5334 68.4367 18.7134 68.7067 18.8668 68.86C19.0268 69.0133 19.2234 69.09 19.4568 69.09C19.7234 69.09 19.9501 68.97 20.1368 68.73C20.3301 68.4833 20.4668 68.1067 20.5468 67.6L20.6868 66.65H20.5268C20.3734 66.65 20.2534 66.6067 20.1668 66.52C20.0801 66.4333 20.0368 66.3133 20.0368 66.16C20.0368 65.9867 20.0801 65.85 20.1668 65.75C20.2601 65.6433 20.3734 65.59 20.5068 65.59H20.8368C20.8834 65.2633 20.9168 65.0367 20.9368 64.91L21.2468 62.66C21.0734 62.64 20.9101 62.63 20.7568 62.63C20.1901 62.63 19.7601 62.73 19.4668 62.93C19.1734 63.1233 19.0268 63.4033 19.0268 63.77C19.0268 63.9367 19.0434 64.0733 19.0768 64.18C19.1168 64.28 19.1668 64.3933 19.2268 64.52C19.2534 64.5733 19.2668 64.6333 19.2668 64.7C19.2668 64.8467 19.1968 64.9767 19.0568 65.09C18.9234 65.1967 18.7734 65.25 18.6068 65.25C18.3934 65.25 18.2368 65.1567 18.1368 64.97C17.9368 64.6167 17.8368 64.2367 17.8368 63.83C17.8368 63.41 17.9501 63.0267 18.1768 62.68C18.4101 62.3333 18.7601 62.0567 19.2268 61.85C19.6934 61.6367 20.2701 61.53 20.9568 61.53C21.2568 61.53 21.5301 61.5467 21.7768 61.58C22.0301 61.6133 22.3068 61.6767 22.6068 61.77C22.9334 61.87 23.0968 62.0567 23.0968 62.33C23.0968 62.6967 22.9401 62.88 22.6268 62.88L22.2368 65.57C23.0168 65.49 23.6501 65.1567 24.1368 64.57C24.6301 63.9767 25.0401 63.1733 25.3668 62.16C25.4268 61.9733 25.5268 61.83 25.6668 61.73C25.8134 61.63 25.9968 61.58 26.2168 61.58C26.4034 61.58 26.5468 61.6233 26.6468 61.71C26.7534 61.79 26.8068 61.9067 26.8068 62.06C26.8068 62.1067 26.7934 62.1833 26.7668 62.29C26.4334 63.39 25.9568 64.2633 25.3368 64.91C24.7168 65.5567 24.0401 65.9867 23.3068 66.2C23.5601 66.26 23.7668 66.35 23.9268 66.47C24.0934 66.59 24.2334 66.74 24.3468 66.92C24.4601 67.0933 24.5901 67.3367 24.7368 67.65C24.9434 68.09 25.1368 68.4033 25.3168 68.59C25.4968 68.77 25.7068 68.86 25.9468 68.86C26.1601 68.86 26.3634 68.79 26.5568 68.65C26.7501 68.5033 26.9934 68.2567 27.2868 67.91C27.3668 67.8167 27.4568 67.77 27.5568 67.77ZM36.352 67.77C36.4387 67.77 36.5053 67.81 36.552 67.89C36.6053 67.97 36.632 68.08 36.632 68.22C36.632 68.48 36.5687 68.6867 36.442 68.84C36.122 69.2267 35.7987 69.5267 35.472 69.74C35.1453 69.9467 34.7587 70.05 34.312 70.05C33.8787 70.05 33.5087 69.9333 33.202 69.7C32.902 69.4667 32.6153 69.0667 32.342 68.5C32.122 68.0467 31.9487 67.7133 31.822 67.5C31.6953 67.28 31.5687 67.1233 31.442 67.03C31.322 66.9367 31.172 66.88 30.992 66.86C30.9653 67 30.8887 67.44 30.762 68.18C30.7087 68.5133 30.6753 68.7167 30.662 68.79C30.5953 69.1967 30.462 69.51 30.262 69.73C30.062 69.9433 29.7587 70.05 29.352 70.05C28.9053 70.05 28.5087 69.92 28.162 69.66C27.822 69.3933 27.5587 69.0267 27.372 68.56C27.1853 68.0867 27.092 67.55 27.092 66.95C27.092 65.83 27.2853 64.8633 27.672 64.05C28.0653 63.2367 28.612 62.6167 29.312 62.19C30.0187 61.7567 30.832 61.54 31.752 61.54C32.392 61.54 32.9287 61.6367 33.362 61.83C33.7953 62.0233 34.1153 62.29 34.322 62.63C34.5353 62.97 34.642 63.3533 34.642 63.78C34.642 64.1533 34.552 64.52 34.372 64.88C34.1987 65.2333 33.9353 65.5467 33.582 65.82C33.2287 66.0933 32.7987 66.2967 32.292 66.43C32.612 66.5167 32.8587 66.6567 33.032 66.85C33.2053 67.0433 33.3787 67.3267 33.552 67.7C33.7387 68.1 33.922 68.3933 34.102 68.58C34.2887 68.7667 34.502 68.86 34.742 68.86C34.9553 68.86 35.1587 68.79 35.352 68.65C35.5453 68.5033 35.7887 68.2567 36.082 67.91C36.162 67.8167 36.252 67.77 36.352 67.77ZM29.612 66.85C29.3853 66.85 29.2287 66.7967 29.142 66.69C29.062 66.5833 29.022 66.4633 29.022 66.33C29.022 66.17 29.072 66.0433 29.172 65.95C29.2787 65.8567 29.3987 65.81 29.532 65.81H29.782C29.8887 65.1567 29.9887 64.5933 30.082 64.12C30.1687 63.6867 30.4487 63.47 30.922 63.47C31.302 63.47 31.492 63.64 31.492 63.98C31.492 64.0533 31.4887 64.11 31.482 64.15L31.182 65.81C31.542 65.79 31.8687 65.7033 32.162 65.55C32.462 65.3967 32.6987 65.1833 32.872 64.91C33.052 64.6367 33.142 64.3267 33.142 63.98C33.142 63.56 32.9987 63.23 32.712 62.99C32.4253 62.75 32.0053 62.63 31.452 62.63C30.7987 62.63 30.2253 62.7933 29.732 63.12C29.2453 63.44 28.8653 63.92 28.592 64.56C28.3187 65.1933 28.182 65.9667 28.182 66.88C28.182 67.3067 28.2253 67.6733 28.312 67.98C28.3987 68.2867 28.5053 68.5167 28.632 68.67C28.7587 68.8233 28.8787 68.9 28.992 68.9C29.0787 68.9 29.1487 68.8567 29.202 68.77C29.262 68.6833 29.3087 68.5433 29.342 68.35L29.612 66.85ZM39.1408 70.05C38.5475 70.05 38.0108 69.9167 37.5308 69.65C37.0575 69.3833 36.6808 68.9933 36.4008 68.48C36.1208 67.96 35.9808 67.34 35.9808 66.62C35.9808 65.6067 36.1642 64.7133 36.5308 63.94C36.9042 63.1667 37.4075 62.57 38.0408 62.15C38.6808 61.73 39.3875 61.52 40.1608 61.52C40.7542 61.52 41.2875 61.6533 41.7608 61.92C42.2408 62.1867 42.6208 62.58 42.9008 63.1C43.1808 63.6133 43.3208 64.23 43.3208 64.95C43.3208 65.9633 43.1342 66.8567 42.7608 67.63C42.3942 68.4033 41.8908 69 41.2508 69.42C40.6175 69.84 39.9142 70.05 39.1408 70.05ZM39.2408 68.87C39.7608 68.87 40.2175 68.71 40.6108 68.39C41.0108 68.07 41.3175 67.6267 41.5308 67.06C41.7442 66.4867 41.8508 65.84 41.8508 65.12C41.8508 64.3267 41.6842 63.7267 41.3508 63.32C41.0175 62.9067 40.5875 62.7 40.0608 62.7C39.5475 62.7 39.0942 62.86 38.7008 63.18C38.3075 63.4933 38.0008 63.9367 37.7808 64.51C37.5608 65.0767 37.4508 65.7233 37.4508 66.45C37.4508 67.2433 37.6175 67.8467 37.9508 68.26C38.2842 68.6667 38.7142 68.87 39.2408 68.87ZM51.6349 67.77C51.7215 67.77 51.7882 67.81 51.8349 67.89C51.8882 67.97 51.9149 68.08 51.9149 68.22C51.9149 68.48 51.8515 68.6867 51.7249 68.84C51.3982 69.2267 51.0749 69.5267 50.7549 69.74C50.4349 69.9467 50.0782 70.05 49.6849 70.05C49.0915 70.05 48.6415 69.8733 48.3349 69.52C48.0349 69.1667 47.7915 68.65 47.6049 67.97L47.2649 66.73L44.9049 69.65C44.7715 69.8167 44.6349 69.9267 44.4949 69.98C44.3549 70.0267 44.1915 70.05 44.0049 70.05C43.8182 70.05 43.6615 70.0167 43.5349 69.95C43.4149 69.8767 43.3549 69.7767 43.3549 69.65C43.3549 69.4833 43.4515 69.2933 43.6449 69.08L46.8849 65.39L46.5649 64.22C46.4115 63.6733 46.2415 63.29 46.0549 63.07C45.8682 62.85 45.6549 62.74 45.4149 62.74C45.0615 62.74 44.6482 62.9967 44.1749 63.51C44.0949 63.5967 44.0049 63.64 43.9049 63.64C43.8049 63.64 43.7182 63.6033 43.6449 63.53C43.5782 63.45 43.5449 63.35 43.5449 63.23C43.5449 63.03 43.6415 62.8133 43.8349 62.58C44.1082 62.26 44.4049 62.0033 44.7249 61.81C45.0449 61.6167 45.4249 61.52 45.8649 61.52C46.3382 61.52 46.7282 61.67 47.0349 61.97C47.3415 62.2633 47.5849 62.74 47.7649 63.4L47.9649 64.1L49.7149 61.97C49.8482 61.81 49.9849 61.6967 50.1249 61.63C50.2649 61.5633 50.4349 61.53 50.6349 61.53C50.8149 61.53 50.9549 61.5633 51.0549 61.63C51.1615 61.6967 51.2149 61.79 51.2149 61.91C51.2149 62.07 51.1249 62.2533 50.9449 62.46L48.3449 65.46L48.9149 67.5C49.0149 67.8533 49.1049 68.1233 49.1849 68.31C49.2649 68.4967 49.3615 68.6367 49.4749 68.73C49.5949 68.8167 49.7515 68.86 49.9449 68.86C50.1515 68.86 50.3649 68.7867 50.5849 68.64C50.8115 68.4933 51.0715 68.25 51.3649 67.91C51.4449 67.8167 51.5349 67.77 51.6349 67.77ZM53.624 70.05C53.164 70.05 52.7474 69.9367 52.374 69.71C52.0074 69.4833 51.7174 69.1567 51.504 68.73C51.2907 68.2967 51.184 67.7867 51.184 67.2C51.184 66.1867 51.4007 65.25 51.834 64.39C52.2674 63.5233 52.9074 62.83 53.754 62.31C54.6007 61.7833 55.6174 61.52 56.804 61.52C57.1107 61.52 57.4374 61.5433 57.784 61.59C58.1374 61.6367 58.4574 61.7067 58.744 61.8C58.9307 61.8533 59.024 61.9867 59.024 62.2C59.024 62.3733 58.9574 62.5367 58.824 62.69C58.6974 62.8433 58.5474 62.92 58.374 62.92C58.3207 62.92 58.2807 62.9167 58.254 62.91C57.9074 62.83 57.6107 62.7733 57.364 62.74C57.1174 62.7 56.8574 62.68 56.584 62.68C55.7374 62.68 55.0174 62.8867 54.424 63.3C53.8307 63.7067 53.3874 64.2467 53.094 64.92C52.8007 65.5933 52.654 66.32 52.654 67.1C52.654 67.6667 52.764 68.1067 52.984 68.42C53.2107 68.7267 53.504 68.88 53.864 68.88C54.2707 68.88 54.6274 68.7133 54.934 68.38C55.2407 68.0467 55.5207 67.5067 55.774 66.76C56.0274 66.0133 56.2774 65 56.524 63.72C56.564 63.5333 56.644 63.4067 56.764 63.34C56.884 63.2733 57.044 63.24 57.244 63.24C57.7174 63.24 57.954 63.3933 57.954 63.7C57.954 63.7533 57.944 63.82 57.924 63.9C57.7507 64.5467 57.5907 65.2633 57.444 66.05C57.304 66.83 57.234 67.4233 57.234 67.83C57.234 68.19 57.2874 68.4533 57.394 68.62C57.5007 68.78 57.664 68.86 57.884 68.86C58.0974 68.86 58.3007 68.79 58.494 68.65C58.6874 68.5033 58.9307 68.2567 59.224 67.91C59.304 67.8167 59.394 67.77 59.494 67.77C59.5807 67.77 59.6474 67.81 59.694 67.89C59.7474 67.97 59.774 68.08 59.774 68.22C59.774 68.48 59.7107 68.6867 59.584 68.84C59.2574 69.2333 58.9374 69.5333 58.624 69.74C58.3107 69.9467 57.9274 70.05 57.474 70.05C57.0074 70.05 56.6307 69.9167 56.344 69.65C56.0574 69.3767 55.8774 68.9933 55.804 68.5C55.3107 69.5333 54.584 70.05 53.624 70.05ZM61.4522 70.05C61.1589 70.05 60.9356 69.97 60.7822 69.81C60.6356 69.65 60.5622 69.44 60.5622 69.18C60.5622 68.88 60.6456 68.64 60.8122 68.46C60.9856 68.28 61.2256 68.19 61.5322 68.19C61.8256 68.19 62.0456 68.2633 62.1922 68.41C62.3456 68.55 62.4222 68.76 62.4222 69.04C62.4222 69.3467 62.3356 69.5933 62.1622 69.78C61.9889 69.96 61.7522 70.05 61.4522 70.05ZM73.631 67.77C73.7176 67.77 73.7843 67.81 73.831 67.89C73.8843 67.97 73.911 68.08 73.911 68.22C73.911 68.48 73.8476 68.6867 73.721 68.84C73.401 69.2267 73.0776 69.5267 72.751 69.74C72.4243 69.9467 72.0376 70.05 71.591 70.05C71.0976 70.05 70.6943 69.9067 70.381 69.62C70.0676 69.3267 69.7743 68.8733 69.501 68.26C69.301 67.82 69.1343 67.4933 69.001 67.28C68.8743 67.06 68.7476 66.9067 68.621 66.82C68.4943 66.7267 68.3343 66.67 68.141 66.65L68.031 67.39C67.891 68.3433 67.6176 69.03 67.211 69.45C66.811 69.87 66.2576 70.08 65.551 70.08C65.091 70.08 64.681 69.97 64.321 69.75C63.9676 69.5233 63.721 69.2367 63.581 68.89C63.5343 68.77 63.511 68.64 63.511 68.5C63.511 68.3 63.5576 68.1267 63.651 67.98C63.7443 67.8333 63.8643 67.76 64.011 67.76C64.0976 67.76 64.171 67.7833 64.231 67.83C64.291 67.87 64.3476 67.9433 64.401 68.05C64.6076 68.4367 64.7876 68.7067 64.941 68.86C65.101 69.0133 65.2976 69.09 65.531 69.09C65.7976 69.09 66.0243 68.97 66.211 68.73C66.4043 68.4833 66.541 68.1067 66.621 67.6L66.761 66.65H66.601C66.4476 66.65 66.3276 66.6067 66.241 66.52C66.1543 66.4333 66.111 66.3133 66.111 66.16C66.111 65.9867 66.1543 65.85 66.241 65.75C66.3343 65.6433 66.4476 65.59 66.581 65.59H66.911C66.9576 65.2633 66.991 65.0367 67.011 64.91L67.321 62.66C67.1476 62.64 66.9843 62.63 66.831 62.63C66.2643 62.63 65.8343 62.73 65.541 62.93C65.2476 63.1233 65.101 63.4033 65.101 63.77C65.101 63.9367 65.1176 64.0733 65.151 64.18C65.191 64.28 65.241 64.3933 65.301 64.52C65.3276 64.5733 65.341 64.6333 65.341 64.7C65.341 64.8467 65.271 64.9767 65.131 65.09C64.9976 65.1967 64.8476 65.25 64.681 65.25C64.4676 65.25 64.311 65.1567 64.211 64.97C64.011 64.6167 63.911 64.2367 63.911 63.83C63.911 63.41 64.0243 63.0267 64.251 62.68C64.4843 62.3333 64.8343 62.0567 65.301 61.85C65.7676 61.6367 66.3443 61.53 67.031 61.53C67.331 61.53 67.6043 61.5467 67.851 61.58C68.1043 61.6133 68.381 61.6767 68.681 61.77C69.0076 61.87 69.171 62.0567 69.171 62.33C69.171 62.6967 69.0143 62.88 68.701 62.88L68.311 65.57C69.091 65.49 69.7243 65.1567 70.211 64.57C70.7043 63.9767 71.1143 63.1733 71.441 62.16C71.501 61.9733 71.601 61.83 71.741 61.73C71.8876 61.63 72.071 61.58 72.291 61.58C72.4776 61.58 72.621 61.6233 72.721 61.71C72.8276 61.79 72.881 61.9067 72.881 62.06C72.881 62.1067 72.8676 62.1833 72.841 62.29C72.5076 63.39 72.031 64.2633 71.411 64.91C70.791 65.5567 70.1143 65.9867 69.381 66.2C69.6343 66.26 69.841 66.35 70.001 66.47C70.1676 66.59 70.3076 66.74 70.421 66.92C70.5343 67.0933 70.6643 67.3367 70.811 67.65C71.0176 68.09 71.211 68.4033 71.391 68.59C71.571 68.77 71.781 68.86 72.021 68.86C72.2343 68.86 72.4376 68.79 72.631 68.65C72.8243 68.5033 73.0676 68.2567 73.361 67.91C73.441 67.8167 73.531 67.77 73.631 67.77ZM80.8362 67.77C80.9229 67.77 80.9895 67.81 81.0362 67.89C81.0895 67.97 81.1162 68.08 81.1162 68.22C81.1162 68.48 81.0529 68.6867 80.9262 68.84C80.5529 69.2867 80.1895 69.6 79.8362 69.78C79.4895 69.96 79.0695 70.05 78.5762 70.05C78.2295 70.05 77.9095 70.0067 77.6162 69.92C77.3229 69.8333 76.9662 69.7033 76.5462 69.53C76.1862 69.3767 75.8662 69.2533 75.5862 69.16C75.2795 69.4933 75.0029 69.7267 74.7562 69.86C74.5095 69.9867 74.2495 70.05 73.9762 70.05C73.6095 70.05 73.3162 69.9667 73.0962 69.8C72.8762 69.6267 72.7662 69.4033 72.7662 69.13C72.7662 68.9233 72.8329 68.7333 72.9662 68.56C73.1062 68.3867 73.2995 68.25 73.5462 68.15C73.7929 68.05 74.0795 68 74.4062 68C74.5929 68 74.7329 68.0033 74.8262 68.01C76.1329 66.3833 77.3129 64.6667 78.3662 62.86C77.7929 62.76 77.2095 62.71 76.6162 62.71C75.8495 62.71 75.2862 62.8 74.9262 62.98C74.5729 63.1533 74.3962 63.43 74.3962 63.81C74.3962 63.9233 74.4095 64.02 74.4362 64.1C74.4629 64.18 74.5029 64.2733 74.5562 64.38C74.6162 64.5 74.6462 64.5867 74.6462 64.64C74.6462 64.7733 74.5829 64.8867 74.4562 64.98C74.3362 65.0667 74.1962 65.11 74.0362 65.11C73.8695 65.11 73.7329 65.06 73.6262 64.96C73.4995 64.8467 73.3962 64.6933 73.3162 64.5C73.2429 64.3 73.2062 64.0767 73.2062 63.83C73.2062 63.05 73.5295 62.4733 74.1762 62.1C74.8229 61.7267 75.6762 61.54 76.7362 61.54C77.2629 61.54 77.7995 61.57 78.3462 61.63C78.8995 61.69 79.4162 61.7867 79.8962 61.92C80.0962 61.9733 80.2295 62.05 80.2962 62.15C80.3629 62.2433 80.3962 62.3667 80.3962 62.52C80.3962 62.7 80.3495 62.84 80.2562 62.94C80.1629 63.04 80.0329 63.09 79.8662 63.09H79.7962C79.0762 64.2633 78.3462 65.39 77.6062 66.47C77.0129 67.33 76.5962 67.9133 76.3562 68.22C76.7429 68.3067 77.0795 68.3867 77.3662 68.46C77.7195 68.5533 78.0029 68.6233 78.2162 68.67C78.4362 68.71 78.6262 68.73 78.7862 68.73C79.1729 68.73 79.5029 68.6667 79.7762 68.54C80.0562 68.4067 80.3195 68.1967 80.5662 67.91C80.6462 67.8167 80.7362 67.77 80.8362 67.77Z" fill="#039BE5"/>
<g clip-path="url(#clip0_7_30)">
<path d="M57.3429 15.2977C57.3429 14.7555 57.1317 14.2455 56.7481 13.862C55.9566 13.0705 54.6685 13.0703 53.8767 13.862C53.6021 14.1366 53.6021 14.5817 53.8766 14.8562C54.1512 15.1309 54.5963 15.1308 54.8709 14.8563C55.1143 14.6127 55.5103 14.6128 55.7537 14.8562C55.8717 14.9742 55.9366 15.131 55.9366 15.2977C55.9366 15.4644 55.8717 15.6212 55.7537 15.7391C55.4791 16.0137 55.4791 16.4588 55.7537 16.7333C55.8911 16.8707 56.071 16.9393 56.251 16.9393C56.4309 16.9393 56.6109 16.8707 56.7481 16.7334C57.1316 16.3499 57.3429 15.8401 57.3429 15.2977Z" fill="#039BE5"/>
<path d="M71.8327 25.8661C72.5115 24.1817 72.8777 22.3745 72.8982 20.5175C72.9386 16.8637 71.6403 13.4295 69.2284 10.7694C69.9437 10.0918 70.8168 9.59016 71.7639 9.315C72.1369 9.20672 72.3514 8.81662 72.243 8.44378C72.1347 8.07084 71.7445 7.85634 71.3718 7.96472C70.1977 8.30578 69.1166 8.93072 68.2341 9.77531C64.0767 6.0075 58.1834 5.1495 53.1412 7.173C52.1814 6.41288 51.0016 6 49.7658 6C49.7383 6 49.7108 6.00019 49.6834 6.00056C48.2594 6.02175 46.9204 6.58809 45.9132 7.59534C44.2011 9.3075 43.8476 11.8731 44.9186 13.9405C44.4938 13.921 44.0595 13.9851 43.6398 14.1427C40.4936 15.3234 35.8956 18.4245 33.1719 21.2025C31.6752 22.7289 30.8868 24.8341 31.0087 26.9782C31.0445 27.6075 31.1042 28.3063 31.1853 29.0592C29.3422 30.7662 27.6736 32.9212 26.5761 35.0228C25.848 36.4172 24.7524 39.0139 25.5949 40.739C25.5982 40.7457 25.6016 40.7528 25.6051 40.7599C24.2844 44.3586 25.1607 48.3847 27.888 51.1118C29.7753 52.9991 32.284 54.0002 34.8433 54C35.9822 54 37.1313 53.8009 38.2395 53.3943C38.2465 53.3978 38.2538 53.4017 38.2608 53.4051C38.6734 53.6065 39.1659 53.7056 39.7244 53.7056C41.1129 53.7056 42.9071 53.093 44.8824 51.9181C46.7103 50.8309 48.489 49.3773 49.9378 47.8151C50.6935 47.8963 51.3933 47.9556 52.0217 47.9914C52.1664 47.9996 52.3108 48.0037 52.4551 48.0037C54.4471 48.0037 56.3739 47.2238 57.7974 45.8282C59.3896 44.2671 61.1334 42.0529 62.5821 39.7532C62.7891 39.4247 62.6904 38.9906 62.3619 38.7836C62.0334 38.5766 61.5993 38.6752 61.3924 39.0038C59.9995 41.2148 58.3305 43.3362 56.8131 44.8241C55.5685 46.0444 53.8519 46.6873 52.1017 46.5876C51.7715 46.5688 51.4196 46.543 51.0496 46.5109C51.2366 46.2704 51.415 46.0292 51.5828 45.7881C52.4651 44.5187 52.9215 43.0145 52.9027 41.4382C52.8706 38.7584 52.5368 34.145 51.6962 29.2334C51.6879 29.1854 51.6793 29.1362 51.6709 29.0877C56.2006 29.9954 59.991 31.2066 62.6779 32.6091C63.4932 33.0348 63.8645 34.0052 63.5411 34.8664C63.3851 35.2819 63.188 35.7368 62.9549 36.2187C62.7859 36.5684 62.9322 36.9887 63.2818 37.1578C63.3804 37.2055 63.4847 37.2281 63.5874 37.2281C63.8486 37.2281 64.0996 37.0819 64.2208 36.831C64.4724 36.3106 64.6868 35.816 64.8576 35.3605C65.0151 34.941 65.079 34.5069 65.0596 34.0822C65.8432 34.4881 66.6981 34.69 67.5514 34.69C68.9492 34.69 70.3419 34.1501 71.4049 33.0871C72.4121 32.0797 72.9786 30.7408 72.9996 29.3168C73.0179 28.054 72.6059 26.8459 71.8327 25.8661ZM46.9074 8.58956C48.1966 7.3005 50.1182 7.05572 51.6494 7.86984C50.3929 8.54475 49.2108 9.41297 48.149 10.4748C47.3542 11.2696 46.6573 12.1422 46.0648 13.0806C45.4011 11.5876 45.6962 9.80081 46.9074 8.58956ZM28.8822 50.1175C26.6994 47.9348 25.9002 44.7813 26.7252 41.8614C27.7965 42.5507 29.9265 43.5096 34.2785 44.7218C34.7959 46.576 35.3197 48.2033 35.8213 49.506C36.3305 50.8281 36.7692 51.6953 37.1434 52.2733C34.2223 53.1007 31.0663 52.3016 28.8822 50.1175ZM50.428 44.9852C48.945 47.1187 46.6032 49.2585 44.1637 50.7096C41.878 52.069 39.8526 52.6174 38.8778 52.1416C38.856 52.1309 38.8327 52.1166 38.8083 52.0992C38.7823 52.0746 38.7547 52.0521 38.7256 52.0317C38.1489 51.5036 36.9984 49.349 35.5359 43.9984C35.5308 43.9757 35.5247 43.9534 35.5175 43.9313C35.3517 43.323 35.182 42.6738 35.0087 41.9812C34.9144 41.6046 34.5328 41.3754 34.1559 41.4698C33.7793 41.5641 33.5503 41.9459 33.6445 42.3225C33.7136 42.5988 33.7832 42.8703 33.8529 43.1392C28.5188 41.5927 27.2371 40.5761 26.9398 40.2361C26.9349 40.23 26.9297 40.2243 26.9246 40.2184C26.8847 40.1704 26.866 40.138 26.8582 40.1219C26.1093 38.5883 27.9621 34.3113 31.3989 30.8103C31.7346 33.2929 32.2502 36.1782 32.8884 39.0935C32.9715 39.4729 33.3465 39.7127 33.7256 39.63C34.1049 39.5469 34.345 39.1721 34.2622 38.7929C33.2697 34.2593 32.5782 29.8128 32.4126 26.8983C32.3131 25.1485 32.9558 23.4313 34.176 22.1869C36.7773 19.5336 41.1513 16.5785 44.1339 15.4589C44.9949 15.1355 45.9654 15.5067 46.3912 16.3222C47.5005 18.4474 49.0069 22.7533 50.0964 28.2455C50.1003 28.3095 50.1126 28.3718 50.1329 28.4309C50.8914 32.307 51.4401 36.7627 51.4963 41.4545C51.5118 42.7368 51.1423 43.9576 50.428 44.9852ZM64.3624 32.2174C64.0886 31.8717 63.7407 31.5776 63.3283 31.3623C60.374 29.8201 56.3621 28.5553 51.3987 27.6008C50.6783 23.8679 49.4922 19.2242 47.6377 15.6716C47.4224 15.2592 47.1282 14.9113 46.7826 14.6375C47.4074 13.4767 48.1995 12.4129 49.1432 11.4692C54.3323 6.28013 62.6779 6.183 67.7474 11.2525C72.8169 16.322 72.7197 24.6677 67.5308 29.8566C66.587 30.8005 65.5232 31.5924 64.3624 32.2174ZM70.4104 32.0925C69.1991 33.3037 67.4124 33.5988 65.9195 32.9351C66.8578 32.3427 67.7303 31.6458 68.5252 30.851C69.5746 29.8015 70.4489 28.6245 71.1334 27.3565C71.9434 28.8866 71.6978 30.805 70.4104 32.0925Z" fill="#039BE5"/>
<path d="M63.7023 21.6572C63.1598 21.6572 62.65 21.8684 62.2665 22.2519C61.9919 22.5265 61.992 22.9717 62.2666 23.2462C62.5413 23.5207 62.9863 23.5208 63.2609 23.2461C63.3788 23.1281 63.5356 23.0633 63.7023 23.0633C63.8689 23.0633 64.0258 23.1281 64.1437 23.2462C64.2617 23.3641 64.3266 23.5209 64.3266 23.6875C64.3266 23.8543 64.2617 24.0111 64.1437 24.1291C63.8691 24.4037 63.8692 24.8488 64.1437 25.1233C64.2811 25.2606 64.461 25.3292 64.6409 25.3292C64.8208 25.3292 65.0008 25.2606 65.1381 25.1232C65.5217 24.7397 65.7329 24.2299 65.7329 23.6875C65.7329 23.1452 65.5217 22.6353 65.1381 22.2519C64.7544 21.8682 64.2446 21.6572 63.7023 21.6572Z" fill="#039BE5"/>
<path d="M59.3578 20.8838C59.0214 20.9066 58.6917 20.7838 58.4539 20.5461C58.2161 20.3082 58.093 19.9787 58.1162 19.6421C58.1428 19.2548 57.8503 18.9192 57.463 18.8926C57.075 18.8672 56.7401 19.1585 56.7135 19.5458C56.6625 20.288 56.9345 21.015 57.4597 21.5403C57.9433 22.0237 58.5975 22.2924 59.2773 22.2924C59.336 22.2924 59.3951 22.2905 59.4542 22.2864C59.8416 22.2598 60.1339 21.9242 60.1074 21.5369C60.0807 21.1495 59.7453 20.8578 59.3578 20.8838Z" fill="#039BE5"/>
</g>
<defs>
<clipPath id="clip0_7_30">
<rect width="48" height="48" fill="white" transform="translate(25 6)"/>
</clipPath>
</defs>
</svg>
