<svg width="32" height="32" viewBox="0 0 32 32" fill="none" xmlns="http://www.w3.org/2000/svg">
<circle cx="16" cy="16" r="16" fill="#FACA41"/>
<g clip-path="url(#clip0_7_40)">
<path d="M20.2523 18.3203C19.7949 17.8681 19.2239 17.8681 18.7695 18.3203C18.4228 18.6646 18.0761 19.0089 17.7353 19.3591C17.642 19.4554 17.5634 19.4758 17.4498 19.4116C17.2254 19.2891 16.9865 19.1899 16.771 19.0556C15.7659 18.4225 14.924 17.6084 14.1782 16.6922C13.8082 16.237 13.479 15.7497 13.2488 15.2011C13.2022 15.0903 13.211 15.0173 13.3013 14.9268C13.6479 14.5913 13.9859 14.247 14.3267 13.9027C14.8016 13.4241 14.8016 12.8639 14.3238 12.3825C14.0529 12.1082 13.782 11.8397 13.511 11.5655C13.2313 11.2853 12.9546 11.0023 12.672 10.7251C12.2146 10.2787 11.6436 10.2787 11.1891 10.728C10.8396 11.0723 10.5045 11.4254 10.1491 11.7639C9.81991 12.0761 9.65385 12.4583 9.6189 12.9048C9.56354 13.6313 9.74125 14.317 9.99179 14.9852C10.5045 16.3683 11.2853 17.5967 12.2321 18.723C13.511 20.2461 15.0376 21.4512 16.8234 22.3207C17.6275 22.7117 18.4607 23.0123 19.3667 23.0619C19.9901 23.0969 20.532 22.9393 20.9661 22.452C21.2632 22.1194 21.5983 21.8159 21.9129 21.4979C22.379 21.0252 22.3819 20.4533 21.9187 19.9864C21.3652 19.4291 20.8088 18.8747 20.2523 18.3203Z" fill="white"/>
<path d="M18.8723 16.8198L19.9473 16.636C19.7783 15.6469 19.3122 14.7511 18.6043 14.0391C17.8555 13.2892 16.9087 12.8165 15.8658 12.6706L15.7143 13.7532C16.5213 13.867 17.2554 14.2317 17.8352 14.8123C18.3828 15.3609 18.7412 16.0554 18.8723 16.8198Z" fill="white"/>
<path d="M20.5533 12.1392C19.3123 10.8961 17.742 10.1112 16.0086 9.86905L15.8571 10.9516C17.3546 11.1617 18.7121 11.8415 19.7842 12.9124C20.801 13.9307 21.4681 15.2175 21.7099 16.6327L22.7849 16.4488C22.5023 14.809 21.7303 13.3209 20.5533 12.1392Z" fill="white"/>
</g>
<defs>
<clipPath id="clip0_7_40">
<rect width="14" height="14.0221" fill="white" transform="translate(9 9.04422)"/>
</clipPath>
</defs>
</svg>
